<svg width="45" height="45" viewBox="0 0 45 45" xmlns="http://www.w3.org/2000/svg" xmlns:xlink="http://www.w3.org/1999/xlink"><title>Bug</title><defs><path id="a" d="M22.527.166H0v45.01h45.053V.167H22.527z"/></defs><g fill="none" fill-rule="evenodd"><g transform="translate(0 .033)"><mask id="b" fill="#fff"><use xlink:href="#a"/></mask><path d="M45.053 22.67c0 12.431-10.087 22.507-22.526 22.507C10.084 45.177 0 35.1 0 22.67 0 10.243 10.084.166 22.527.166c12.44 0 22.526 10.077 22.526 22.504" fill="#62B0BB" mask="url(#b)"/></g><path d="M35.116 34.448c-.357 0-.621-.02-.797-.054a.918.918 0 0 1-.445-.206 1.414 1.414 0 0 1-.317-.45 48.625 48.625 0 0 1-.354-.749V14.136c0-.464.005-.851.017-1.163.012-.313.077-.569.193-.764.12-.198.308-.343.568-.435.26-.092.635-.138 1.135-.138v-.488H28.7v.488c.476 0 .839.046 1.098.138.26.092.442.243.548.453.106.208.166.468.178.782.01.31.016.687.016 1.127v16.908l-.02 1.56a35.638 35.638 0 0 1-2.618-1.937c.092-2.55-.493-5.119-1.743-7.644-1.073-2.168-2.636-4.307-4.643-6.357-3.391-3.46-6.86-5.467-7.006-5.55l-.022.032H9.937v.63c.355 0 .62.016.797.049a.974.974 0 0 1 .443.209c.115.106.223.257.32.453.092.196.212.445.351.746v18.852c0 .465-.005.85-.018 1.162-.01.313-.076.57-.192.766-.119.196-.308.342-.567.434-.26.092-.638.14-1.134.14v.486h6.413v-.486c-.473-.002-.838-.048-1.098-.14a.927.927 0 0 1-.549-.451c-.108-.208-.165-.47-.176-.783a25.06 25.06 0 0 1-.018-1.128v-16.91l.02-1.556c.668.446 1.59 1.1 2.619 1.932-.092 2.554.491 5.124 1.741 7.65 1.075 2.167 2.636 4.305 4.646 6.355 3.39 3.46 6.86 5.467 7.005 5.55l.02-.033h4.556v-.627zm-10.04-6.343c-3.405-3.478-5.321-7.03-5.72-10.603.204.2.411.405.618.615 3.407 3.478 5.325 7.032 5.722 10.602a32.45 32.45 0 0 1-.62-.614z" fill="#FEFEFE"/></g></svg>