<svg width="176" height="45" viewBox="0 0 176 45" xmlns="http://www.w3.org/2000/svg"><title>Text</title><g fill="none" fill-rule="evenodd"><path d="M68.96 10.956a.858.858 0 0 0-.464.4c-.088.18-.137.41-.148.688a23.71 23.71 0 0 0-.014.98v17.803h-1.52L54.863 13.74v14.496c0 .377.006.703.015.965.011.27.06.495.15.673a.8.8 0 0 0 .463.388c.217.076.524.116.924.116v.298h-4.8v-.298c.418 0 .736-.04.955-.116a.891.891 0 0 0 .478-.373c.099-.17.154-.387.163-.655.01-.268.015-.6.015-.998V12.073l-.298-.64a1.193 1.193 0 0 0-.268-.386.76.76 0 0 0-.374-.179 3.584 3.584 0 0 0-.67-.046v-.296h3.933a310.408 310.408 0 0 0 5.574 8.126 308.143 308.143 0 0 1 5.57 8.126V13.025c0-.396-.004-.734-.015-1.01a1.658 1.658 0 0 0-.15-.686c-.087-.179-.245-.307-.475-.389-.23-.075-.551-.118-.969-.118v-.296h4.827v.296c-.417 0-.734.046-.953.134m19.695 19.721H75.037v-.298c.614 0 1.001-.083 1.16-.254.16-.166.24-.57.24-1.203V12.28c0-.632-.08-1.037-.24-1.205-.159-.169-.546-.253-1.16-.253v-.295h13.319l.03 3.063h-.419c-.1-.753-.333-1.215-.699-1.382-.367-.167-.9-.254-1.595-.254h-6.02c-.337 0-.53.034-.58.104-.05.072-.076.265-.076.585v6.84h6.05c.318 0 .598-.014.834-.043.24-.03.433-.094.58-.192a.93.93 0 0 0 .344-.448c.082-.199.138-.465.178-.804h.391v4.466h-.39c-.041-.358-.097-.636-.18-.835a1.033 1.033 0 0 0-.343-.462 1.189 1.189 0 0 0-.563-.206 6.822 6.822 0 0 0-.85-.048h-6.05v7.773c0 .177.054.31.164.402.11.089.239.141.387.16.151.02.309.028.479.016.167-.01.31-.015.431-.015h4.916c.477 0 .89-.025 1.237-.072a2.63 2.63 0 0 0 .94-.314c.277-.159.523-.371.744-.638.218-.27.425-.633.625-1.087h.476l-.744 3.54zm18.075 0a36.324 36.324 0 0 0-1.431-2.843 20.657 20.657 0 0 0-1.55-2.364 22.428 22.428 0 0 0-1.816-2.116 39.403 39.403 0 0 0-2.236-2.112l-2.145.028v7.652c0 .335.019.605.06.802.04.2.109.35.208.446.099.1.25.157.446.18.2.021.457.029.776.029v.298h-5.422v-.298c.295 0 .54-.014.729-.044.188-.032.332-.093.431-.193a.783.783 0 0 0 .196-.431 5.5 5.5 0 0 0 .043-.789V12.28c0-.315-.014-.574-.043-.772-.032-.199-.097-.348-.196-.448a.766.766 0 0 0-.431-.191 4.735 4.735 0 0 0-.729-.047v-.295h7.12c.875 0 1.715.093 2.518.28a6.37 6.37 0 0 1 2.13.908 4.625 4.625 0 0 1 1.478 1.638c.365.676.55 1.508.55 2.5 0 .754-.14 1.412-.42 1.98a4.212 4.212 0 0 1-1.131 1.43 6.021 6.021 0 0 1-1.637.935 8.834 8.834 0 0 1-1.94.508 28.85 28.85 0 0 1 1.403 1.22c.357.338.67.66.938.968.268.307.532.625.79.952.256.328.565.71.922 1.145.399.498.778 1.057 1.133 1.683.36.625.69 1.208 1 1.756.307.546.59 1.009.848 1.385.258.377.506.564.745.564v.298h-3.337zM97.55 19.842h1.43a11.4 11.4 0 0 0 2.1-.193 5.698 5.698 0 0 0 1.865-.685 3.801 3.801 0 0 0 1.34-1.325c.337-.556.507-1.25.507-2.082 0-.735-.14-1.34-.418-1.817a2.975 2.975 0 0 0-1.118-1.117 4.744 4.744 0 0 0-1.594-.55c-.597-.1-1.203-.15-1.818-.15h-.596c-.198 0-.408.01-.625.031-.22.02-.423.07-.61.148-.19.08-.343.188-.463.328v7.412zm16.93 10.835v-.298c.336 0 .612-.008.82-.03.209-.022.371-.074.491-.162.119-.09.2-.233.238-.435a4.5 4.5 0 0 0 .06-.83V12.28a4.5 4.5 0 0 0-.06-.83c-.039-.2-.12-.345-.238-.432-.12-.092-.282-.146-.49-.164a9.09 9.09 0 0 0-.82-.032v-.295h5.78v.295a9.02 9.02 0 0 0-.82.032.932.932 0 0 0-.492.164c-.117.087-.198.232-.237.432-.04.198-.062.474-.062.83v16.642c0 .357.022.633.062.83.04.202.12.346.237.435.121.088.284.14.493.162.21.022.48.03.819.03v.298h-5.78zm28.016-19.855c-.298 0-.527.083-.687.253a1.379 1.379 0 0 0-.326.609c-.06.24-.09.498-.09.777v11.162c0 2.399-.658 4.235-1.98 5.506-1.322 1.27-3.176 1.906-5.558 1.906-2.404 0-4.26-.647-5.571-1.935-1.312-1.292-1.967-3.138-1.967-5.537V12.279c0-.434-.051-.787-.149-1.058-.1-.265-.408-.399-.926-.399h-.446v-.296h5.573v.297c-.32 0-.573.012-.762.03a.758.758 0 0 0-.446.179c-.11.099-.184.248-.225.448a4.49 4.49 0 0 0-.058.806v11.376c0 1.834.421 3.28 1.262 4.348.844 1.063 2.214 1.596 4.116 1.596 1.746 0 3.095-.5 4.056-1.494.963-.995 1.441-2.359 1.441-4.091V12.196c0-.296-.044-.545-.134-.743a.932.932 0 0 0-.461-.465c-.219-.109-.535-.165-.952-.165v-.297h4.735v.296h-.445zm23.299 19.855v-.298c.32 0 .577-.014.775-.044.198-.032.352-.093.463-.193a.804.804 0 0 0 .224-.431c.039-.19.058-.454.058-.789V12.847l-7.629 17.83h-1.013l-7.629-17.443v14.914c0 .374.007.705.016.982.008.278.06.51.15.7.09.19.24.327.446.416.207.089.522.133.94.133v.298H147.8v-.298c.416 0 .737-.044.966-.133.228-.09.388-.224.479-.403.087-.179.137-.404.15-.683.01-.278.014-.615.014-1.012V12.28c0-.356-.027-.632-.077-.83-.05-.2-.135-.345-.253-.432-.118-.092-.283-.146-.49-.164a8.636 8.636 0 0 0-.789-.032v-.295h4.65l7.252 16.488 7.04-16.488h4.565v.295c-.315 0-.57.016-.759.047-.19.029-.333.094-.431.191-.102.1-.165.25-.194.448a5.24 5.24 0 0 0-.044.772v16.642c0 .335.013.6.044.789.029.187.092.33.194.43.098.101.24.162.431.194.189.03.444.044.76.044v.298h-5.513zM53.299 39.98h.756v-4.252H53.3zm7.421-4.252h1.004l2.062 3.159h.012v-3.159h.758v4.252h-.962l-2.104-3.262h-.012v3.262h-.758zm11.392.685h-1.304v-.685h3.366v.685H72.87v3.567h-.758zm8.313-.685h2.82v.685h-2.062v1.044h1.953v.685h-1.953v1.153h2.17v.685h-2.928zm9.407 0h1.48c.817 0 1.587.264 1.587 1.219 0 .613-.356 1.063-.987 1.152l1.13 1.88h-.913l-.985-1.802h-.554v1.803h-.758v-4.252zm1.346 1.801c.428 0 .926-.035.926-.588 0-.505-.469-.564-.859-.564h-.655v1.152h.588zm8.176-1.801h1.003l2.064 3.159h.01v-3.159h.758v4.252h-.962l-2.103-3.262h-.012v3.262h-.758zm11.896 0h.656l1.833 4.252h-.865l-.397-.973h-1.846l-.385.973h-.847l1.852-4.252zm.963 2.63l-.655-1.729-.669 1.73h1.324zm8.054-1.945h-1.305v-.685h3.367v.685h-1.305v3.567h-.757zm8.296 3.567h.758v-4.252h-.758zm9.442-4.36c1.328-.025 2.266.864 2.266 2.228 0 1.327-.938 2.216-2.266 2.24-1.312 0-2.249-.888-2.249-2.216 0-1.363.937-2.252 2.249-2.252m.006 3.784c.882 0 1.467-.673 1.467-1.58 0-.847-.585-1.52-1.467-1.52-.879 0-1.46.673-1.46 1.52 0 .907.581 1.58 1.46 1.58m8.717-3.676h1.003l2.063 3.159h.011v-3.159h.758v4.252h-.962l-2.103-3.262h-.013v3.262h-.757zm11.896 0h.655l1.833 4.252h-.865l-.397-.973h-1.846l-.385.973h-.847l1.852-4.252zm.962 2.63l-.655-1.729-.669 1.73h1.324zm7.737-2.63h.758v3.567h1.809v.685h-2.567z" fill="#A4AAAD"/><path d="M173.634 10.713h-.667v1.775h-.238v-1.775h-.666v-.22h1.571zm2.018-.22l-.689 1.564h-.005l-.684-1.564h-.356v1.995h.24v-1.673h.005l.723 1.673h.146l.723-1.673h.006v1.673H176v-1.995z" fill="#A6ABAE"/></g></svg>